<svg width="78" height="45" viewBox="0 0 78 45" fill="none" xmlns="http://www.w3.org/2000/svg">
<path d="M38.024 43.512L26.152 31.64C25.6293 31.1173 25.368 30.52 25.368 29.848C25.368 29.176 25.6293 28.5787 26.152 28.056C26.6747 27.5333 27.272 27.272 27.944 27.272C28.616 27.272 29.2133 27.5333 29.736 28.056L41.664 39.928C42.1493 40.488 42.392 41.0853 42.392 41.72C42.4293 42.3547 42.1867 42.952 41.664 43.512C41.104 44.0347 40.488 44.296 39.816 44.296C39.1813 44.296 38.584 44.0347 38.024 43.512ZM22.288 44.856C19.0027 44.856 15.9973 44.3147 13.272 43.232C10.5467 42.112 8.19467 40.544 6.216 38.528C4.27467 36.512 2.744 34.1413 1.624 31.416C0.541333 28.6907 0 25.6853 0 22.4C0 19.152 0.541333 16.1653 1.624 13.44C2.744 10.7147 4.27467 8.344 6.216 6.328C8.19467 4.312 10.5467 2.76266 13.272 1.68C15.9973 0.559999 19.0027 0 22.288 0C25.536 0 28.5227 0.559999 31.248 1.68C33.9733 2.76266 36.3253 4.312 38.304 6.328C40.2827 8.344 41.8133 10.7147 42.896 13.44C44.016 16.1653 44.576 19.152 44.576 22.4C44.576 25.6853 44.016 28.6907 42.896 31.416C41.8133 34.1413 40.2827 36.512 38.304 38.528C36.3253 40.544 33.9733 42.112 31.248 43.232C28.5227 44.3147 25.536 44.856 22.288 44.856ZM22.288 40.04C24.7893 40.04 27.0853 39.592 29.176 38.696C31.2667 37.8 33.0773 36.568 34.608 35C36.176 33.3947 37.3707 31.528 38.192 29.4C39.0507 27.2347 39.48 24.9013 39.48 22.4C39.48 19.8987 39.0507 17.584 38.192 15.456C37.3707 13.328 36.176 11.4613 34.608 9.856C33.0773 8.25066 31.2667 7.01866 29.176 6.16C27.0853 5.264 24.7893 4.816 22.288 4.816C19.7867 4.816 17.4907 5.264 15.4 6.16C13.3093 7.01866 11.4987 8.25066 9.968 9.856C8.43733 11.4613 7.24267 13.328 6.384 15.456C5.52533 17.584 5.096 19.8987 5.096 22.4C5.096 24.9013 5.52533 27.2347 6.384 29.4C7.24267 31.528 8.43733 33.3947 9.968 35C11.4987 36.568 13.3093 37.8 15.4 38.696C17.4907 39.592 19.7867 40.04 22.288 40.04Z" fill="#E2B714"/>
<path d="M41.4231 4.68589C41.0756 4.47276 41.2589 3.93639 41.6642 3.9806L65.3571 6.56528C66.5606 6.69658 67.4722 7.71301 67.4722 8.92366C67.4722 10.2339 66.41 11.296 65.0998 11.296H46.9066C46.6461 11.296 46.4136 11.1323 46.3259 10.8869L46.2221 10.5965C45.3429 8.13691 43.6497 6.05153 41.4231 4.68589Z" fill="#E2B714"/>
<path d="M47.1253 29.8948C47.1826 29.6562 47.3914 29.4847 47.6367 29.4749L70.3436 28.5674C72.0508 28.4991 73.4722 29.8648 73.4722 31.5734C73.4722 33.119 72.301 34.4132 70.7631 34.567L43.9572 37.2479C43.7689 37.2667 43.6465 37.0545 43.7572 36.901L44.1806 36.3134C45.57 34.3856 46.5702 32.2054 47.1253 29.8948Z" fill="#E2B714"/>
<path d="M47.6881 15.9509C47.5833 15.633 47.8268 15.3078 48.1614 15.319L73.9142 16.1774C75.8981 16.2436 77.4722 17.871 77.4722 19.856V19.856C77.4722 21.7923 75.9719 23.3975 74.04 23.5282L48.5569 25.2525C48.2379 25.2741 47.9897 24.9798 48.0648 24.669V24.669C48.755 21.8106 48.6329 18.8162 47.7121 16.0236L47.6881 15.9509Z" fill="#E2B714"/>
</svg>
